<svg xmlns="http://www.w3.org/2000/svg" width="16" height="16" viewBox="0 0 16 16" fill="none">
  <path d="M7.99731 14C11.311 14 13.9973 11.3137 13.9973 8C13.9973 4.68629 11.311 2 7.99731 2C4.68361 2 1.99731 4.68629 1.99731 8C1.99731 11.3137 4.68361 14 7.99731 14Z" stroke="#101828" stroke-width="1.2" stroke-miterlimit="10"/>
  <path d="M2.34277 6H13.6553" stroke="#101828" stroke-width="1.2" stroke-linecap="round" stroke-linejoin="round"/>
  <path d="M2.34277 10H13.6553" stroke="#101828" stroke-width="1.2" stroke-linecap="round" stroke-linejoin="round"/>
  <path d="M7.99951 13.8381C9.38022 13.8381 10.4995 11.2245 10.4995 8.00059C10.4995 4.77662 9.38022 2.16309 7.99951 2.16309C6.6188 2.16309 5.49951 4.77662 5.49951 8.00059C5.49951 11.2245 6.6188 13.8381 7.99951 13.8381Z" stroke="#101828" stroke-width="1.2" stroke-miterlimit="10"/>
</svg>
